<svg width="131" height="33" viewBox="0 0 131 33" fill="none" xmlns="http://www.w3.org/2000/svg">
<path d="M15.7389 24.5456L9.15762 20.7615C8.97906 20.6336 8.74948 20.7615 8.74948 20.9916V28.5598C8.74948 28.7643 8.85152 28.9433 9.03008 29.0456L15.6113 32.8297C15.7899 32.932 16.0195 32.8041 16.0195 32.5996V25.0314C16.0195 24.8268 15.9174 24.6478 15.7389 24.5456ZM16.045 14.9574L16.0195 22.6279C16.0195 22.8069 15.8409 22.8581 15.7134 22.8069L7.67812 18.2046C7.49956 18.1024 7.26998 18.2302 7.26998 18.4347V27.5115C7.26998 27.716 7.01489 27.8694 6.86184 27.7416L0.280597 24.0086C0.102036 23.9064 0 23.7274 0 23.5228V5.90628C0 5.70173 0.255089 5.54832 0.408141 5.67616L15.7389 14.4205C15.9174 14.5739 16.045 14.7529 16.045 14.9574ZM32.9827 5.82957L26.478 9.53697C26.2995 9.63925 26.1974 9.81822 26.1719 10.0228L26.1974 19.4063C26.1974 19.6109 26.0954 19.7899 25.9168 19.8921L17.7796 24.5711C17.601 24.6734 17.499 24.8524 17.499 25.0569V32.5996C17.499 32.8041 17.7285 32.9575 17.9071 32.8297L33.1103 24.1365C33.2889 24.0342 33.3909 23.8552 33.3909 23.6507V6.08525C33.3909 5.85514 33.1613 5.7273 32.9827 5.82957ZM17.499 14.983V22.5257C17.499 22.7302 17.7285 22.8836 17.9071 22.7558L24.5649 18.9461C24.6414 18.9205 24.6924 18.8183 24.6924 18.716V11.0455C24.6924 10.841 24.4628 10.6875 24.2843 10.8154L17.7796 14.5228C17.601 14.5995 17.499 14.7785 17.499 14.983ZM1.24993 3.80968L7.72914 0.0767049C7.9077 0 8.11177 0 8.31584 0.0767049L23.6466 8.82107C23.8251 8.92334 23.8251 9.20459 23.6466 9.30686L17.1418 13.0398C16.9633 13.1421 16.7592 13.1421 16.5807 13.0398L1.24993 4.29547C1.09687 4.1932 1.09687 3.91195 1.24993 3.80968ZM18.6469 3.80968L25.2026 0.0767049C25.3812 -0.0255683 25.5852 -0.0255683 25.7638 0.0767049L32.3705 3.86082C32.5491 3.96309 32.5491 4.24434 32.3705 4.34661L25.8148 8.07959C25.6362 8.18186 25.4322 8.18186 25.2536 8.07959L18.6469 4.29547C18.4683 4.1932 18.4683 3.91195 18.6469 3.80968Z" fill="#6D28D9"/>
<path d="M47.2921 11.725C47.6821 11.765 48.0471 11.865 48.3871 12.025C48.7271 12.185 49.0221 12.395 49.2721 12.655C49.5221 12.915 49.7171 13.23 49.8571 13.6C50.0071 13.97 50.0821 14.395 50.0821 14.875C50.0821 15.355 50.0071 15.78 49.8571 16.15C49.7071 16.52 49.5021 16.835 49.2421 17.095C48.9921 17.355 48.6971 17.565 48.3571 17.725C48.0271 17.875 47.6721 17.975 47.2921 18.025C47.0321 18.055 46.7921 18.075 46.5721 18.085C46.3521 18.095 46.0921 18.1 45.7921 18.1H44.2771V22H42.2071V11.65H45.7921C46.0921 11.65 46.3521 11.655 46.5721 11.665C46.7921 11.675 47.0321 11.695 47.2921 11.725ZM46.6771 16.42C47.0371 16.37 47.3321 16.225 47.5621 15.985C47.7921 15.735 47.9071 15.365 47.9071 14.875C47.9071 14.385 47.7921 14.02 47.5621 13.78C47.3321 13.53 47.0371 13.38 46.6771 13.33C46.4571 13.3 46.1521 13.285 45.7621 13.285H44.2771V16.465H45.7621C46.1521 16.465 46.4571 16.45 46.6771 16.42ZM55.2278 13.825C55.4578 13.825 55.6528 13.845 55.8128 13.885V15.55C54.9528 15.49 54.3078 15.675 53.8778 16.105C53.4478 16.525 53.2328 17.27 53.2328 18.34V22H51.1628V14.02H53.2328V15.475L53.8628 14.365C54.0628 14.185 54.2828 14.05 54.5228 13.96C54.7628 13.87 54.9978 13.825 55.2278 13.825ZM60.3878 13.81C61.0478 13.81 61.6328 13.915 62.1428 14.125C62.6628 14.335 63.0978 14.63 63.4478 15.01C63.8078 15.38 64.0778 15.82 64.2578 16.33C64.4378 16.84 64.5278 17.4 64.5278 18.01C64.5278 18.61 64.4378 19.17 64.2578 19.69C64.0778 20.2 63.8078 20.645 63.4478 21.025C63.0978 21.395 62.6628 21.685 62.1428 21.895C61.6328 22.105 61.0478 22.21 60.3878 22.21C59.7278 22.21 59.1378 22.105 58.6178 21.895C58.1078 21.685 57.6728 21.395 57.3128 21.025C56.9628 20.645 56.6978 20.2 56.5178 19.69C56.3378 19.17 56.2478 18.61 56.2478 18.01C56.2478 17.4 56.3378 16.84 56.5178 16.33C56.6978 15.82 56.9628 15.38 57.3128 15.01C57.6728 14.63 58.1078 14.335 58.6178 14.125C59.1378 13.915 59.7278 13.81 60.3878 13.81ZM60.3878 20.755C61.0178 20.755 61.5078 20.515 61.8578 20.035C62.2078 19.545 62.3828 18.87 62.3828 18.01C62.3828 17.14 62.2078 16.465 61.8578 15.985C61.5078 15.505 61.0178 15.265 60.3878 15.265C59.7578 15.265 59.2678 15.505 58.9178 15.985C58.5678 16.465 58.3928 17.14 58.3928 18.01C58.3928 18.87 58.5678 19.545 58.9178 20.035C59.2678 20.515 59.7578 20.755 60.3878 20.755ZM68.3595 19.135C68.3595 19.275 68.3595 19.4 68.3595 19.51C68.3595 19.62 68.3645 19.73 68.3745 19.84C68.3945 20.03 68.4245 20.19 68.4645 20.32C68.5145 20.44 68.5945 20.535 68.7045 20.605C68.8245 20.665 68.9745 20.705 69.1545 20.725C69.3445 20.735 69.5845 20.73 69.8745 20.71V22.06C69.6445 22.1 69.4145 22.125 69.1845 22.135C68.9645 22.155 68.7395 22.165 68.5095 22.165C67.7395 22.165 67.1945 22.035 66.8745 21.775C66.5545 21.505 66.3695 21.09 66.3195 20.53C66.2995 20.35 66.2895 20.17 66.2895 19.99C66.2895 19.81 66.2895 19.605 66.2895 19.375V15.445H65.1195V14.08H66.2895V12.115H68.3595V14.08H70.0095V15.445H68.3595V19.135ZM74.7725 13.81C75.4325 13.81 76.0175 13.915 76.5275 14.125C77.0475 14.335 77.4825 14.63 77.8325 15.01C78.1925 15.38 78.4625 15.82 78.6425 16.33C78.8225 16.84 78.9125 17.4 78.9125 18.01C78.9125 18.61 78.8225 19.17 78.6425 19.69C78.4625 20.2 78.1925 20.645 77.8325 21.025C77.4825 21.395 77.0475 21.685 76.5275 21.895C76.0175 22.105 75.4325 22.21 74.7725 22.21C74.1125 22.21 73.5225 22.105 73.0025 21.895C72.4925 21.685 72.0575 21.395 71.6975 21.025C71.3475 20.645 71.0825 20.2 70.9025 19.69C70.7225 19.17 70.6325 18.61 70.6325 18.01C70.6325 17.4 70.7225 16.84 70.9025 16.33C71.0825 15.82 71.3475 15.38 71.6975 15.01C72.0575 14.63 72.4925 14.335 73.0025 14.125C73.5225 13.915 74.1125 13.81 74.7725 13.81ZM74.7725 20.755C75.4025 20.755 75.8925 20.515 76.2425 20.035C76.5925 19.545 76.7675 18.87 76.7675 18.01C76.7675 17.14 76.5925 16.465 76.2425 15.985C75.8925 15.505 75.4025 15.265 74.7725 15.265C74.1425 15.265 73.6525 15.505 73.3025 15.985C72.9525 16.465 72.7775 17.14 72.7775 18.01C72.7775 18.87 72.9525 19.545 73.3025 20.035C73.6525 20.515 74.1425 20.755 74.7725 20.755ZM84.0942 11.44C84.7142 11.44 85.2492 11.525 85.6992 11.695C86.1592 11.855 86.5442 12.085 86.8542 12.385C87.1642 12.675 87.4042 13.02 87.5742 13.42C87.7442 13.81 87.8592 14.235 87.9192 14.695H85.8042C85.7442 14.165 85.5642 13.75 85.2642 13.45C84.9742 13.14 84.5592 12.985 84.0192 12.985C83.5992 12.985 83.2492 13.085 82.9692 13.285C82.6992 13.485 82.5642 13.795 82.5642 14.215C82.5642 14.645 82.7242 14.985 83.0442 15.235C83.3742 15.485 83.9492 15.71 84.7692 15.91C85.9192 16.17 86.7542 16.565 87.2742 17.095C87.8042 17.625 88.0692 18.31 88.0692 19.15C88.0692 19.64 87.9642 20.075 87.7542 20.455C87.5542 20.835 87.2742 21.155 86.9142 21.415C86.5642 21.675 86.1592 21.87 85.6992 22C85.2392 22.14 84.7542 22.21 84.2442 22.21C82.9942 22.21 81.9892 21.94 81.2292 21.4C80.4792 20.85 80.0542 20.03 79.9542 18.94H82.0692C82.1792 19.51 82.4292 19.94 82.8192 20.23C83.2192 20.52 83.6842 20.665 84.2142 20.665C84.6942 20.665 85.0942 20.55 85.4142 20.32C85.7442 20.08 85.9092 19.76 85.9092 19.36C85.9092 18.92 85.7542 18.565 85.4442 18.295C85.1442 18.025 84.6092 17.8 83.8392 17.62C83.3092 17.49 82.8292 17.345 82.3992 17.185C81.9792 17.015 81.6192 16.81 81.3192 16.57C81.0192 16.33 80.7892 16.04 80.6292 15.7C80.4692 15.36 80.3892 14.95 80.3892 14.47C80.3892 13.99 80.4892 13.565 80.6892 13.195C80.8892 12.815 81.1592 12.495 81.4992 12.235C81.8392 11.975 82.2342 11.78 82.6842 11.65C83.1342 11.51 83.6042 11.44 84.0942 11.44ZM94.1352 13.81C94.6952 13.81 95.1952 13.91 95.6352 14.11C96.0752 14.31 96.4452 14.59 96.7452 14.95C97.0552 15.31 97.2902 15.74 97.4502 16.24C97.6102 16.73 97.6902 17.27 97.6902 17.86C97.6902 18.58 97.5852 19.215 97.3752 19.765C97.1752 20.305 96.9002 20.755 96.5502 21.115C96.2002 21.475 95.7902 21.75 95.3202 21.94C94.8602 22.12 94.3752 22.21 93.8652 22.21C93.5352 22.21 93.1902 22.17 92.8302 22.09C92.4702 22.01 92.1902 21.9 91.9902 21.76L91.4652 20.935V24.94H89.3952V14.02H91.4652V15.235L92.0652 14.365C92.2952 14.185 92.5952 14.05 92.9652 13.96C93.3352 13.86 93.7252 13.81 94.1352 13.81ZM93.4602 20.755C94.0602 20.755 94.5552 20.53 94.9452 20.08C95.3452 19.62 95.5452 18.925 95.5452 17.995C95.5452 17.175 95.3652 16.515 95.0052 16.015C94.6452 15.515 94.1552 15.265 93.5352 15.265C93.2552 15.265 92.9852 15.315 92.7252 15.415C92.4752 15.505 92.2552 15.655 92.0652 15.865C91.8852 16.075 91.7402 16.35 91.6302 16.69C91.5202 17.02 91.4652 17.43 91.4652 17.92V18.295C91.4652 18.745 91.5252 19.13 91.6452 19.45C91.7652 19.76 91.9152 20.015 92.0952 20.215C92.2852 20.405 92.5002 20.545 92.7402 20.635C92.9802 20.715 93.2202 20.755 93.4602 20.755ZM106.474 16.045C106.494 16.245 106.509 16.46 106.519 16.69C106.529 16.91 106.534 17.18 106.534 17.5V22H104.464V17.785C104.464 17.615 104.464 17.44 104.464 17.26C104.464 17.07 104.454 16.875 104.434 16.675C104.404 16.255 104.269 15.915 104.029 15.655C103.789 15.395 103.414 15.265 102.904 15.265C102.654 15.265 102.419 15.325 102.199 15.445C101.979 15.555 101.789 15.735 101.629 15.985C101.469 16.235 101.339 16.555 101.239 16.945C101.149 17.325 101.104 17.795 101.104 18.355V22H99.0339V10.9H101.104V15.31L101.719 14.365C102.009 14.165 102.304 14.025 102.604 13.945C102.914 13.855 103.259 13.81 103.639 13.81C104.489 13.81 105.154 14.01 105.634 14.41C106.114 14.8 106.394 15.345 106.474 16.045ZM115.595 17.845C115.595 17.945 115.595 18.055 115.595 18.175C115.595 18.285 115.585 18.41 115.565 18.55H109.895C109.925 18.97 109.995 19.32 110.105 19.6C110.215 19.88 110.35 20.11 110.51 20.29C110.67 20.46 110.855 20.58 111.065 20.65C111.275 20.72 111.5 20.755 111.74 20.755C112.19 20.755 112.56 20.64 112.85 20.41C113.15 20.17 113.335 19.835 113.405 19.405H115.475C115.375 19.865 115.21 20.275 114.98 20.635C114.75 20.985 114.47 21.275 114.14 21.505C113.81 21.735 113.435 21.91 113.015 22.03C112.605 22.15 112.165 22.21 111.695 22.21C111.145 22.21 110.635 22.125 110.165 21.955C109.695 21.785 109.285 21.53 108.935 21.19C108.585 20.84 108.31 20.405 108.11 19.885C107.91 19.355 107.81 18.74 107.81 18.04C107.81 17.43 107.905 16.865 108.095 16.345C108.295 15.825 108.57 15.38 108.92 15.01C109.27 14.63 109.695 14.335 110.195 14.125C110.695 13.915 111.25 13.81 111.86 13.81C112.47 13.81 113.005 13.92 113.465 14.14C113.935 14.35 114.325 14.64 114.635 15.01C114.955 15.38 115.195 15.81 115.355 16.3C115.515 16.79 115.595 17.305 115.595 17.845ZM111.77 15.265C111.29 15.265 110.89 15.425 110.57 15.745C110.25 16.055 110.045 16.54 109.955 17.2H113.465C113.395 16.57 113.22 16.09 112.94 15.76C112.66 15.43 112.27 15.265 111.77 15.265ZM121.087 13.825C121.317 13.825 121.512 13.845 121.672 13.885V15.55C120.812 15.49 120.167 15.675 119.737 16.105C119.307 16.525 119.092 17.27 119.092 18.34V22H117.022V14.02H119.092V15.475L119.722 14.365C119.922 14.185 120.142 14.05 120.382 13.96C120.622 13.87 120.857 13.825 121.087 13.825ZM129.892 17.845C129.892 17.945 129.892 18.055 129.892 18.175C129.892 18.285 129.882 18.41 129.862 18.55H124.192C124.222 18.97 124.292 19.32 124.402 19.6C124.512 19.88 124.647 20.11 124.807 20.29C124.967 20.46 125.152 20.58 125.362 20.65C125.572 20.72 125.797 20.755 126.037 20.755C126.487 20.755 126.857 20.64 127.147 20.41C127.447 20.17 127.632 19.835 127.702 19.405H129.772C129.672 19.865 129.507 20.275 129.277 20.635C129.047 20.985 128.767 21.275 128.437 21.505C128.107 21.735 127.732 21.91 127.312 22.03C126.902 22.15 126.462 22.21 125.992 22.21C125.442 22.21 124.932 22.125 124.462 21.955C123.992 21.785 123.582 21.53 123.232 21.19C122.882 20.84 122.607 20.405 122.407 19.885C122.207 19.355 122.107 18.74 122.107 18.04C122.107 17.43 122.202 16.865 122.392 16.345C122.592 15.825 122.867 15.38 123.217 15.01C123.567 14.63 123.992 14.335 124.492 14.125C124.992 13.915 125.547 13.81 126.157 13.81C126.767 13.81 127.302 13.92 127.762 14.14C128.232 14.35 128.622 14.64 128.932 15.01C129.252 15.38 129.492 15.81 129.652 16.3C129.812 16.79 129.892 17.305 129.892 17.845ZM126.067 15.265C125.587 15.265 125.187 15.425 124.867 15.745C124.547 16.055 124.342 16.54 124.252 17.2H127.762C127.692 16.57 127.517 16.09 127.237 15.76C126.957 15.43 126.567 15.265 126.067 15.265Z" fill="#6D28D9"/>
</svg>
