<svg width="149" height="33" viewBox="0 0 149 33" fill="none" xmlns="http://www.w3.org/2000/svg">
<path d="M15.7389 24.5456L9.15762 20.7615C8.97906 20.6336 8.74948 20.7615 8.74948 20.9916V28.5598C8.74948 28.7643 8.85152 28.9433 9.03008 29.0456L15.6113 32.8297C15.7899 32.932 16.0195 32.8041 16.0195 32.5996V25.0314C16.0195 24.8268 15.9174 24.6478 15.7389 24.5456ZM16.045 14.9574L16.0195 22.6279C16.0195 22.8069 15.8409 22.8581 15.7134 22.8069L7.67812 18.2046C7.49956 18.1024 7.26998 18.2302 7.26998 18.4347V27.5115C7.26998 27.716 7.01489 27.8694 6.86184 27.7416L0.280597 24.0086C0.102036 23.9064 0 23.7274 0 23.5228V5.90628C0 5.70173 0.255089 5.54832 0.408141 5.67616L15.7389 14.4205C15.9174 14.5739 16.045 14.7529 16.045 14.9574ZM32.9827 5.82957L26.478 9.53697C26.2995 9.63925 26.1974 9.81822 26.1719 10.0228L26.1974 19.4063C26.1974 19.6109 26.0954 19.7899 25.9168 19.8921L17.7796 24.5711C17.601 24.6734 17.499 24.8524 17.499 25.0569V32.5996C17.499 32.8041 17.7285 32.9575 17.9071 32.8297L33.1103 24.1365C33.2889 24.0342 33.3909 23.8552 33.3909 23.6507V6.08525C33.3909 5.85514 33.1613 5.7273 32.9827 5.82957ZM17.499 14.983V22.5257C17.499 22.7302 17.7285 22.8836 17.9071 22.7558L24.5649 18.9461C24.6414 18.9205 24.6924 18.8183 24.6924 18.716V11.0455C24.6924 10.841 24.4628 10.6875 24.2843 10.8154L17.7796 14.5228C17.601 14.5995 17.499 14.7785 17.499 14.983ZM1.24993 3.80968L7.72914 0.0767049C7.9077 -1.90499e-09 8.11177 -1.90499e-09 8.31584 0.0767049L23.6466 8.82107C23.8251 8.92334 23.8251 9.20459 23.6466 9.30686L17.1418 13.0398C16.9633 13.1421 16.7592 13.1421 16.5807 13.0398L1.24993 4.29547C1.09687 4.1932 1.09687 3.91195 1.24993 3.80968ZM18.6469 3.80968L25.2026 0.0767049C25.3812 -0.0255683 25.5852 -0.0255683 25.7638 0.0767049L32.3705 3.86082C32.5491 3.96309 32.5491 4.24434 32.3705 4.34661L25.8148 8.07959C25.6362 8.18186 25.4322 8.18186 25.2536 8.07959L18.6469 4.29547C18.4683 4.1932 18.4683 3.91195 18.6469 3.80968Z" fill="#010202"/>
<path d="M47.2921 2.725C47.6821 2.765 48.0471 2.865 48.3871 3.025C48.7271 3.185 49.0221 3.395 49.2721 3.655C49.5221 3.915 49.7171 4.23 49.8571 4.6C50.0071 4.97 50.0821 5.395 50.0821 5.875C50.0821 6.355 50.0071 6.78 49.8571 7.15C49.7071 7.52 49.5021 7.835 49.2421 8.095C48.9921 8.355 48.6971 8.565 48.3571 8.725C48.0271 8.875 47.6721 8.975 47.2921 9.025C47.0321 9.055 46.7921 9.075 46.5721 9.085C46.3521 9.095 46.0921 9.1 45.7921 9.1H44.2771V13H42.2071V2.65H45.7921C46.0921 2.65 46.3521 2.655 46.5721 2.665C46.7921 2.675 47.0321 2.695 47.2921 2.725ZM46.6771 7.42C47.0371 7.37 47.3321 7.225 47.5621 6.985C47.7921 6.735 47.9071 6.365 47.9071 5.875C47.9071 5.385 47.7921 5.02 47.5621 4.78C47.3321 4.53 47.0371 4.38 46.6771 4.33C46.4571 4.3 46.1521 4.285 45.7621 4.285H44.2771V7.465H45.7621C46.1521 7.465 46.4571 7.45 46.6771 7.42Z" fill="black"/>
<path d="M55.2278 4.825C55.4578 4.825 55.6528 4.845 55.8128 4.885V6.55C54.9528 6.49 54.3078 6.675 53.8778 7.105C53.4478 7.525 53.2328 8.27 53.2328 9.34V13H51.1628V5.02H53.2328V6.475L53.8628 5.365C54.0628 5.185 54.2828 5.05 54.5228 4.96C54.7628 4.87 54.9978 4.825 55.2278 4.825Z" fill="black"/>
<path d="M60.3878 4.81C61.0478 4.81 61.6328 4.915 62.1428 5.125C62.6628 5.335 63.0978 5.63 63.4478 6.01C63.8078 6.38 64.0778 6.82 64.2578 7.33C64.4378 7.84 64.5278 8.4 64.5278 9.01C64.5278 9.61 64.4378 10.17 64.2578 10.69C64.0778 11.2 63.8078 11.645 63.4478 12.025C63.0978 12.395 62.6628 12.685 62.1428 12.895C61.6328 13.105 61.0478 13.21 60.3878 13.21C59.7278 13.21 59.1378 13.105 58.6178 12.895C58.1078 12.685 57.6728 12.395 57.3128 12.025C56.9628 11.645 56.6978 11.2 56.5178 10.69C56.3378 10.17 56.2478 9.61 56.2478 9.01C56.2478 8.4 56.3378 7.84 56.5178 7.33C56.6978 6.82 56.9628 6.38 57.3128 6.01C57.6728 5.63 58.1078 5.335 58.6178 5.125C59.1378 4.915 59.7278 4.81 60.3878 4.81ZM60.3878 11.755C61.0178 11.755 61.5078 11.515 61.8578 11.035C62.2078 10.545 62.3828 9.87 62.3828 9.01C62.3828 8.14 62.2078 7.465 61.8578 6.985C61.5078 6.505 61.0178 6.265 60.3878 6.265C59.7578 6.265 59.2678 6.505 58.9178 6.985C58.5678 7.465 58.3928 8.14 58.3928 9.01C58.3928 9.87 58.5678 10.545 58.9178 11.035C59.2678 11.515 59.7578 11.755 60.3878 11.755Z" fill="black"/>
<path d="M68.3595 10.135C68.3595 10.275 68.3595 10.4 68.3595 10.51C68.3595 10.62 68.3645 10.73 68.3745 10.84C68.3945 11.03 68.4245 11.19 68.4645 11.32C68.5145 11.44 68.5945 11.535 68.7045 11.605C68.8245 11.665 68.9745 11.705 69.1545 11.725C69.3445 11.735 69.5845 11.73 69.8745 11.71V13.06C69.6445 13.1 69.4145 13.125 69.1845 13.135C68.9645 13.155 68.7395 13.165 68.5095 13.165C67.7395 13.165 67.1945 13.035 66.8745 12.775C66.5545 12.505 66.3695 12.09 66.3195 11.53C66.2995 11.35 66.2895 11.17 66.2895 10.99C66.2895 10.81 66.2895 10.605 66.2895 10.375V6.445H65.1195V5.08H66.2895V3.115H68.3595V5.08H70.0095V6.445H68.3595V10.135Z" fill="black"/>
<path d="M74.7725 4.81C75.4325 4.81 76.0175 4.915 76.5275 5.125C77.0475 5.335 77.4825 5.63 77.8325 6.01C78.1925 6.38 78.4625 6.82 78.6425 7.33C78.8225 7.84 78.9125 8.4 78.9125 9.01C78.9125 9.61 78.8225 10.17 78.6425 10.69C78.4625 11.2 78.1925 11.645 77.8325 12.025C77.4825 12.395 77.0475 12.685 76.5275 12.895C76.0175 13.105 75.4325 13.21 74.7725 13.21C74.1125 13.21 73.5225 13.105 73.0025 12.895C72.4925 12.685 72.0575 12.395 71.6975 12.025C71.3475 11.645 71.0825 11.2 70.9025 10.69C70.7225 10.17 70.6325 9.61 70.6325 9.01C70.6325 8.4 70.7225 7.84 70.9025 7.33C71.0825 6.82 71.3475 6.38 71.6975 6.01C72.0575 5.63 72.4925 5.335 73.0025 5.125C73.5225 4.915 74.1125 4.81 74.7725 4.81ZM74.7725 11.755C75.4025 11.755 75.8925 11.515 76.2425 11.035C76.5925 10.545 76.7675 9.87 76.7675 9.01C76.7675 8.14 76.5925 7.465 76.2425 6.985C75.8925 6.505 75.4025 6.265 74.7725 6.265C74.1425 6.265 73.6525 6.505 73.3025 6.985C72.9525 7.465 72.7775 8.14 72.7775 9.01C72.7775 9.87 72.9525 10.545 73.3025 11.035C73.6525 11.515 74.1425 11.755 74.7725 11.755Z" fill="black"/>
<path d="M83.7192 4.81C84.2592 4.81 84.7442 4.89 85.1742 5.05C85.6142 5.2 85.9892 5.415 86.2992 5.695C86.6092 5.965 86.8542 6.29 87.0342 6.67C87.2142 7.05 87.3242 7.46 87.3642 7.9H85.3242C85.2242 7.32 85.0292 6.905 84.7392 6.655C84.4592 6.395 84.1042 6.265 83.6742 6.265C83.1442 6.265 82.7092 6.485 82.3692 6.925C82.0392 7.355 81.8742 8.025 81.8742 8.935C81.8742 9.925 82.0392 10.645 82.3692 11.095C82.7092 11.535 83.1392 11.755 83.6592 11.755C84.0692 11.755 84.4142 11.63 84.6942 11.38C84.9742 11.13 85.1692 10.75 85.2792 10.24H87.3492C87.1792 11.23 86.7492 11.975 86.0592 12.475C85.3792 12.965 84.5392 13.21 83.5392 13.21C82.9992 13.21 82.4942 13.125 82.0242 12.955C81.5642 12.775 81.1642 12.515 80.8242 12.175C80.4842 11.825 80.2142 11.395 80.0142 10.885C79.8242 10.365 79.7292 9.76 79.7292 9.07C79.7292 8.39 79.8342 7.785 80.0442 7.255C80.2542 6.725 80.5392 6.28 80.8992 5.92C81.2592 5.56 81.6792 5.285 82.1592 5.095C82.6492 4.905 83.1692 4.81 83.7192 4.81Z" fill="black"/>
<path d="M92.2774 4.81C92.9374 4.81 93.5224 4.915 94.0324 5.125C94.5524 5.335 94.9874 5.63 95.3374 6.01C95.6974 6.38 95.9674 6.82 96.1474 7.33C96.3274 7.84 96.4174 8.4 96.4174 9.01C96.4174 9.61 96.3274 10.17 96.1474 10.69C95.9674 11.2 95.6974 11.645 95.3374 12.025C94.9874 12.395 94.5524 12.685 94.0324 12.895C93.5224 13.105 92.9374 13.21 92.2774 13.21C91.6174 13.21 91.0274 13.105 90.5074 12.895C89.9974 12.685 89.5624 12.395 89.2024 12.025C88.8524 11.645 88.5874 11.2 88.4074 10.69C88.2274 10.17 88.1374 9.61 88.1374 9.01C88.1374 8.4 88.2274 7.84 88.4074 7.33C88.5874 6.82 88.8524 6.38 89.2024 6.01C89.5624 5.63 89.9974 5.335 90.5074 5.125C91.0274 4.915 91.6174 4.81 92.2774 4.81ZM92.2774 11.755C92.9074 11.755 93.3974 11.515 93.7474 11.035C94.0974 10.545 94.2724 9.87 94.2724 9.01C94.2724 8.14 94.0974 7.465 93.7474 6.985C93.3974 6.505 92.9074 6.265 92.2774 6.265C91.6474 6.265 91.1574 6.505 90.8074 6.985C90.4574 7.465 90.2824 8.14 90.2824 9.01C90.2824 9.87 90.4574 10.545 90.8074 11.035C91.1574 11.515 91.6474 11.755 92.2774 11.755Z" fill="black"/>
<path d="M99.7841 10.39C99.7841 10.55 99.7841 10.685 99.7841 10.795C99.7841 10.905 99.7891 11.015 99.7991 11.125C99.8191 11.325 99.8891 11.465 100.009 11.545C100.139 11.615 100.379 11.64 100.729 11.62V13.045C100.529 13.065 100.324 13.08 100.114 13.09C99.9041 13.1 99.6841 13.105 99.4541 13.105C98.9441 13.105 98.5341 13 98.2241 12.79C97.9241 12.58 97.7641 12.215 97.7441 11.695C97.7241 11.515 97.7141 11.325 97.7141 11.125C97.7141 10.925 97.7141 10.695 97.7141 10.435V1.975H99.7841V10.39Z" fill="black"/>
<path d="M112.739 13H105.269V2.65H107.339V11.275H112.739V13Z" fill="black"/>
<path d="M118.416 11.83L118.026 12.685C117.746 12.875 117.441 13.01 117.111 13.09C116.781 13.17 116.426 13.21 116.046 13.21C115.706 13.21 115.376 13.16 115.056 13.06C114.746 12.96 114.476 12.815 114.246 12.625C114.016 12.425 113.831 12.18 113.691 11.89C113.551 11.6 113.481 11.265 113.481 10.885C113.481 10.005 113.846 9.33 114.576 8.86C115.316 8.38 116.416 8.14 117.876 8.14H118.386V7.975C118.386 7.855 118.386 7.735 118.386 7.615C118.386 7.495 118.376 7.365 118.356 7.225C118.326 6.945 118.216 6.715 118.026 6.535C117.836 6.355 117.536 6.265 117.126 6.265C116.706 6.265 116.386 6.38 116.166 6.61C115.946 6.84 115.821 7.175 115.791 7.615L113.781 7.63C113.801 7.18 113.896 6.78 114.066 6.43C114.246 6.08 114.486 5.785 114.786 5.545C115.096 5.305 115.456 5.125 115.866 5.005C116.276 4.875 116.721 4.81 117.201 4.81C117.761 4.81 118.236 4.87 118.626 4.99C119.016 5.1 119.336 5.26 119.586 5.47C119.846 5.68 120.036 5.93 120.156 6.22C120.286 6.5 120.366 6.815 120.396 7.165C120.426 7.535 120.441 7.945 120.441 8.395V10.975C120.441 11.275 120.451 11.575 120.471 11.875C120.491 12.175 120.531 12.55 120.591 13H118.566L118.416 11.83ZM116.841 11.755C117.261 11.755 117.621 11.615 117.921 11.335C118.231 11.045 118.386 10.62 118.386 10.06V9.415C117.566 9.355 116.901 9.425 116.391 9.625C115.881 9.825 115.626 10.19 115.626 10.72C115.626 11.07 115.736 11.33 115.956 11.5C116.176 11.67 116.471 11.755 116.841 11.755Z" fill="black"/>
<path d="M127.094 4.81C127.654 4.81 128.154 4.91 128.594 5.11C129.034 5.31 129.404 5.59 129.704 5.95C130.014 6.31 130.249 6.74 130.409 7.24C130.569 7.73 130.649 8.27 130.649 8.86C130.649 9.58 130.544 10.215 130.334 10.765C130.134 11.305 129.859 11.755 129.509 12.115C129.159 12.475 128.749 12.75 128.279 12.94C127.819 13.12 127.334 13.21 126.824 13.21C126.494 13.21 126.149 13.17 125.789 13.09C125.429 13.01 125.149 12.9 124.949 12.76L124.424 11.935V13H122.354V1.975H124.424V6.235L125.024 5.365C125.254 5.185 125.554 5.05 125.924 4.96C126.294 4.86 126.684 4.81 127.094 4.81ZM126.419 11.755C127.019 11.755 127.514 11.53 127.904 11.08C128.304 10.62 128.504 9.925 128.504 8.995C128.504 8.175 128.324 7.515 127.964 7.015C127.604 6.515 127.114 6.265 126.494 6.265C126.214 6.265 125.944 6.315 125.684 6.415C125.434 6.505 125.214 6.655 125.024 6.865C124.844 7.075 124.699 7.35 124.589 7.69C124.479 8.02 124.424 8.43 124.424 8.92V9.295C124.424 9.745 124.484 10.13 124.604 10.45C124.724 10.76 124.874 11.015 125.054 11.215C125.244 11.405 125.459 11.545 125.699 11.635C125.939 11.715 126.179 11.755 126.419 11.755Z" fill="black"/>
<path d="M134.843 4.81C135.323 4.81 135.748 4.875 136.118 5.005C136.488 5.125 136.803 5.3 137.063 5.53C137.333 5.75 137.548 6.015 137.708 6.325C137.868 6.635 137.968 6.97 138.008 7.33H135.938C135.868 6.96 135.733 6.675 135.533 6.475C135.333 6.275 135.058 6.175 134.708 6.175C134.398 6.175 134.163 6.255 134.003 6.415C133.843 6.575 133.763 6.78 133.763 7.03C133.763 7.33 133.898 7.57 134.168 7.75C134.448 7.93 134.918 8.105 135.578 8.275C136.398 8.485 137.033 8.78 137.483 9.16C137.943 9.53 138.173 10.085 138.173 10.825C138.173 11.225 138.088 11.575 137.918 11.875C137.748 12.175 137.513 12.425 137.213 12.625C136.923 12.815 136.578 12.96 136.178 13.06C135.778 13.16 135.348 13.21 134.888 13.21C133.918 13.21 133.113 12.995 132.473 12.565C131.843 12.135 131.473 11.47 131.363 10.57H133.433C133.513 11.01 133.688 11.335 133.958 11.545C134.238 11.745 134.558 11.845 134.918 11.845C135.248 11.845 135.523 11.775 135.743 11.635C135.973 11.485 136.088 11.265 136.088 10.975C136.088 10.665 135.943 10.415 135.653 10.225C135.363 10.025 134.873 9.84 134.183 9.67C133.813 9.58 133.473 9.47 133.163 9.34C132.853 9.2 132.588 9.035 132.368 8.845C132.148 8.655 131.978 8.43 131.858 8.17C131.738 7.91 131.678 7.61 131.678 7.27C131.678 6.89 131.753 6.55 131.903 6.25C132.053 5.94 132.268 5.68 132.548 5.47C132.828 5.26 133.158 5.1 133.538 4.99C133.928 4.87 134.363 4.81 134.843 4.81Z" fill="black"/>
<path d="M45.6421 18.44C46.2621 18.44 46.7971 18.525 47.2471 18.695C47.7071 18.855 48.0921 19.085 48.4021 19.385C48.7121 19.675 48.9521 20.02 49.1221 20.42C49.2921 20.81 49.4071 21.235 49.4671 21.695H47.3521C47.2921 21.165 47.1121 20.75 46.8121 20.45C46.5221 20.14 46.1071 19.985 45.5671 19.985C45.1471 19.985 44.7971 20.085 44.5171 20.285C44.2471 20.485 44.1121 20.795 44.1121 21.215C44.1121 21.645 44.2721 21.985 44.5921 22.235C44.9221 22.485 45.4971 22.71 46.3171 22.91C47.4671 23.17 48.3021 23.565 48.8221 24.095C49.3521 24.625 49.6171 25.31 49.6171 26.15C49.6171 26.64 49.5121 27.075 49.3021 27.455C49.1021 27.835 48.8221 28.155 48.4621 28.415C48.1121 28.675 47.7071 28.87 47.2471 29C46.7871 29.14 46.3021 29.21 45.7921 29.21C44.5421 29.21 43.5371 28.94 42.7771 28.4C42.0271 27.85 41.6021 27.03 41.5021 25.94H43.6171C43.7271 26.51 43.9771 26.94 44.3671 27.23C44.7671 27.52 45.2321 27.665 45.7621 27.665C46.2421 27.665 46.6421 27.55 46.9621 27.32C47.2921 27.08 47.4571 26.76 47.4571 26.36C47.4571 25.92 47.3021 25.565 46.9921 25.295C46.6921 25.025 46.1571 24.8 45.3871 24.62C44.8571 24.49 44.3771 24.345 43.9471 24.185C43.5271 24.015 43.1671 23.81 42.8671 23.57C42.5671 23.33 42.3371 23.04 42.1771 22.7C42.0171 22.36 41.9371 21.95 41.9371 21.47C41.9371 20.99 42.0371 20.565 42.2371 20.195C42.4371 19.815 42.7071 19.495 43.0471 19.235C43.3871 18.975 43.7821 18.78 44.2321 18.65C44.6821 18.51 45.1521 18.44 45.6421 18.44Z" fill="black"/>
<path d="M54.5431 20.81C55.2031 20.81 55.7881 20.915 56.2981 21.125C56.8181 21.335 57.2531 21.63 57.6031 22.01C57.9631 22.38 58.2331 22.82 58.4131 23.33C58.5931 23.84 58.6831 24.4 58.6831 25.01C58.6831 25.61 58.5931 26.17 58.4131 26.69C58.2331 27.2 57.9631 27.645 57.6031 28.025C57.2531 28.395 56.8181 28.685 56.2981 28.895C55.7881 29.105 55.2031 29.21 54.5431 29.21C53.8831 29.21 53.2931 29.105 52.7731 28.895C52.2631 28.685 51.8281 28.395 51.4681 28.025C51.1181 27.645 50.8531 27.2 50.6731 26.69C50.4931 26.17 50.4031 25.61 50.4031 25.01C50.4031 24.4 50.4931 23.84 50.6731 23.33C50.8531 22.82 51.1181 22.38 51.4681 22.01C51.8281 21.63 52.2631 21.335 52.7731 21.125C53.2931 20.915 53.8831 20.81 54.5431 20.81ZM54.5431 27.755C55.1731 27.755 55.6631 27.515 56.0131 27.035C56.3631 26.545 56.5381 25.87 56.5381 25.01C56.5381 24.14 56.3631 23.465 56.0131 22.985C55.6631 22.505 55.1731 22.265 54.5431 22.265C53.9131 22.265 53.4231 22.505 53.0731 22.985C52.7231 23.465 52.5481 24.14 52.5481 25.01C52.5481 25.87 52.7231 26.545 53.0731 27.035C53.4231 27.515 53.9131 27.755 54.5431 27.755Z" fill="black"/>
<path d="M63.4897 20.81C64.0297 20.81 64.5147 20.89 64.9447 21.05C65.3847 21.2 65.7597 21.415 66.0697 21.695C66.3797 21.965 66.6247 22.29 66.8047 22.67C66.9847 23.05 67.0947 23.46 67.1347 23.9H65.0947C64.9947 23.32 64.7997 22.905 64.5097 22.655C64.2297 22.395 63.8747 22.265 63.4447 22.265C62.9147 22.265 62.4797 22.485 62.1397 22.925C61.8097 23.355 61.6447 24.025 61.6447 24.935C61.6447 25.925 61.8097 26.645 62.1397 27.095C62.4797 27.535 62.9097 27.755 63.4297 27.755C63.8397 27.755 64.1847 27.63 64.4647 27.38C64.7447 27.13 64.9397 26.75 65.0497 26.24H67.1197C66.9497 27.23 66.5197 27.975 65.8297 28.475C65.1497 28.965 64.3097 29.21 63.3097 29.21C62.7697 29.21 62.2647 29.125 61.7947 28.955C61.3347 28.775 60.9347 28.515 60.5947 28.175C60.2547 27.825 59.9847 27.395 59.7847 26.885C59.5947 26.365 59.4997 25.76 59.4997 25.07C59.4997 24.39 59.6047 23.785 59.8147 23.255C60.0247 22.725 60.3097 22.28 60.6697 21.92C61.0297 21.56 61.4497 21.285 61.9297 21.095C62.4197 20.905 62.9397 20.81 63.4897 20.81Z" fill="black"/>
<path d="M69.4829 18.05C69.8229 18.05 70.0979 18.155 70.3079 18.365C70.5179 18.565 70.6229 18.825 70.6229 19.145C70.6229 19.475 70.5179 19.74 70.3079 19.94C70.0979 20.14 69.8229 20.24 69.4829 20.24C69.1429 20.24 68.8679 20.14 68.6579 19.94C68.4479 19.74 68.3429 19.475 68.3429 19.145C68.3429 18.825 68.4479 18.565 68.6579 18.365C68.8679 18.155 69.1429 18.05 69.4829 18.05ZM68.4479 29V21.02H70.5179V29H68.4479Z" fill="black"/>
<path d="M76.9173 27.83L76.5273 28.685C76.2473 28.875 75.9423 29.01 75.6123 29.09C75.2823 29.17 74.9273 29.21 74.5473 29.21C74.2073 29.21 73.8773 29.16 73.5573 29.06C73.2473 28.96 72.9773 28.815 72.7473 28.625C72.5173 28.425 72.3323 28.18 72.1923 27.89C72.0523 27.6 71.9823 27.265 71.9823 26.885C71.9823 26.005 72.3473 25.33 73.0773 24.86C73.8173 24.38 74.9173 24.14 76.3773 24.14H76.8873V23.975C76.8873 23.855 76.8873 23.735 76.8873 23.615C76.8873 23.495 76.8773 23.365 76.8573 23.225C76.8273 22.945 76.7173 22.715 76.5273 22.535C76.3373 22.355 76.0373 22.265 75.6273 22.265C75.2073 22.265 74.8873 22.38 74.6673 22.61C74.4473 22.84 74.3223 23.175 74.2923 23.615L72.2823 23.63C72.3023 23.18 72.3973 22.78 72.5673 22.43C72.7473 22.08 72.9873 21.785 73.2873 21.545C73.5973 21.305 73.9573 21.125 74.3673 21.005C74.7773 20.875 75.2223 20.81 75.7023 20.81C76.2623 20.81 76.7373 20.87 77.1273 20.99C77.5173 21.1 77.8373 21.26 78.0873 21.47C78.3473 21.68 78.5373 21.93 78.6573 22.22C78.7873 22.5 78.8673 22.815 78.8973 23.165C78.9273 23.535 78.9423 23.945 78.9423 24.395V26.975C78.9423 27.275 78.9523 27.575 78.9723 27.875C78.9923 28.175 79.0323 28.55 79.0923 29H77.0673L76.9173 27.83ZM75.3423 27.755C75.7623 27.755 76.1223 27.615 76.4223 27.335C76.7323 27.045 76.8873 26.62 76.8873 26.06V25.415C76.0673 25.355 75.4023 25.425 74.8923 25.625C74.3823 25.825 74.1273 26.19 74.1273 26.72C74.1273 27.07 74.2373 27.33 74.4573 27.5C74.6773 27.67 74.9723 27.755 75.3423 27.755Z" fill="black"/>
<path d="M82.8652 26.39C82.8652 26.55 82.8652 26.685 82.8652 26.795C82.8652 26.905 82.8702 27.015 82.8802 27.125C82.9002 27.325 82.9702 27.465 83.0902 27.545C83.2202 27.615 83.4602 27.64 83.8102 27.62V29.045C83.6102 29.065 83.4052 29.08 83.1952 29.09C82.9852 29.1 82.7652 29.105 82.5352 29.105C82.0252 29.105 81.6152 29 81.3052 28.79C81.0052 28.58 80.8452 28.215 80.8252 27.695C80.8052 27.515 80.7952 27.325 80.7952 27.125C80.7952 26.925 80.7952 26.695 80.7952 26.435V17.975H82.8652V26.39Z" fill="black"/>
<path d="M94.6047 29L90.3447 21.14C90.3747 21.71 90.3947 22.275 90.4047 22.835C90.4147 23.385 90.4197 23.88 90.4197 24.32V29H88.3497V18.65H91.0947L95.4447 26.66C95.4147 26.1 95.3947 25.53 95.3847 24.95C95.3747 24.37 95.3697 23.855 95.3697 23.405V18.65H97.4247L97.4397 29H94.6047Z" fill="black"/>
<path d="M106.601 24.845C106.601 24.945 106.601 25.055 106.601 25.175C106.601 25.285 106.591 25.41 106.571 25.55H100.901C100.931 25.97 101.001 26.32 101.111 26.6C101.221 26.88 101.356 27.11 101.516 27.29C101.676 27.46 101.861 27.58 102.071 27.65C102.281 27.72 102.506 27.755 102.746 27.755C103.196 27.755 103.566 27.64 103.856 27.41C104.156 27.17 104.341 26.835 104.411 26.405H106.481C106.381 26.865 106.216 27.275 105.986 27.635C105.756 27.985 105.476 28.275 105.146 28.505C104.816 28.735 104.441 28.91 104.021 29.03C103.611 29.15 103.171 29.21 102.701 29.21C102.151 29.21 101.641 29.125 101.171 28.955C100.701 28.785 100.291 28.53 99.9411 28.19C99.5911 27.84 99.3161 27.405 99.1161 26.885C98.9161 26.355 98.8161 25.74 98.8161 25.04C98.8161 24.43 98.9111 23.865 99.1011 23.345C99.3011 22.825 99.5761 22.38 99.9261 22.01C100.276 21.63 100.701 21.335 101.201 21.125C101.701 20.915 102.256 20.81 102.866 20.81C103.476 20.81 104.011 20.92 104.471 21.14C104.941 21.35 105.331 21.64 105.641 22.01C105.961 22.38 106.201 22.81 106.361 23.3C106.521 23.79 106.601 24.305 106.601 24.845ZM102.776 22.265C102.296 22.265 101.896 22.425 101.576 22.745C101.256 23.055 101.051 23.54 100.961 24.2H104.471C104.401 23.57 104.226 23.09 103.946 22.76C103.666 22.43 103.276 22.265 102.776 22.265Z" fill="black"/>
<path d="M110.503 26.135C110.503 26.275 110.503 26.4 110.503 26.51C110.503 26.62 110.508 26.73 110.518 26.84C110.538 27.03 110.568 27.19 110.608 27.32C110.658 27.44 110.738 27.535 110.848 27.605C110.968 27.665 111.118 27.705 111.298 27.725C111.488 27.735 111.728 27.73 112.018 27.71V29.06C111.788 29.1 111.558 29.125 111.328 29.135C111.108 29.155 110.883 29.165 110.653 29.165C109.883 29.165 109.338 29.035 109.018 28.775C108.698 28.505 108.513 28.09 108.463 27.53C108.443 27.35 108.433 27.17 108.433 26.99C108.433 26.81 108.433 26.605 108.433 26.375V22.445H107.263V21.08H108.433V19.115H110.503V21.08H112.153V22.445H110.503V26.135Z" fill="black"/>
<path d="M122.448 29H120.108L118.758 22.925L117.393 29H115.038L112.503 21.02H114.813L116.223 27.275L117.528 21.05H120.018L121.368 27.26L122.763 21.02H124.983L122.448 29Z" fill="black"/>
<path d="M129.514 20.81C130.174 20.81 130.759 20.915 131.269 21.125C131.789 21.335 132.224 21.63 132.574 22.01C132.934 22.38 133.204 22.82 133.384 23.33C133.564 23.84 133.654 24.4 133.654 25.01C133.654 25.61 133.564 26.17 133.384 26.69C133.204 27.2 132.934 27.645 132.574 28.025C132.224 28.395 131.789 28.685 131.269 28.895C130.759 29.105 130.174 29.21 129.514 29.21C128.854 29.21 128.264 29.105 127.744 28.895C127.234 28.685 126.799 28.395 126.439 28.025C126.089 27.645 125.824 27.2 125.644 26.69C125.464 26.17 125.374 25.61 125.374 25.01C125.374 24.4 125.464 23.84 125.644 23.33C125.824 22.82 126.089 22.38 126.439 22.01C126.799 21.63 127.234 21.335 127.744 21.125C128.264 20.915 128.854 20.81 129.514 20.81ZM129.514 27.755C130.144 27.755 130.634 27.515 130.984 27.035C131.334 26.545 131.509 25.87 131.509 25.01C131.509 24.14 131.334 23.465 130.984 22.985C130.634 22.505 130.144 22.265 129.514 22.265C128.884 22.265 128.394 22.505 128.044 22.985C127.694 23.465 127.519 24.14 127.519 25.01C127.519 25.87 127.694 26.545 128.044 27.035C128.394 27.515 128.884 27.755 129.514 27.755Z" fill="black"/>
<path d="M139.075 20.825C139.305 20.825 139.5 20.845 139.66 20.885V22.55C138.8 22.49 138.155 22.675 137.725 23.105C137.295 23.525 137.08 24.27 137.08 25.34V29H135.01V21.02H137.08V22.475L137.71 21.365C137.91 21.185 138.13 21.05 138.37 20.96C138.61 20.87 138.845 20.825 139.075 20.825Z" fill="black"/>
<path d="M142.779 26.57V29H140.709V17.975H142.779V24.665L145.989 21.02H148.479L144.939 24.725L148.524 29H145.914L143.439 25.85L142.779 26.57Z" fill="black"/>
</svg>
